<svg xmlns="http://www.w3.org/2000/svg" width="320" height="320" viewBox="0 0 320 320" fill="none" stroke-linecap="round" stroke-linejoin="round">
  <path d="M84 40 H188 L240 92 V264 a14 14 0 0 1 -14 14 H84 a14 14 0 0 1 -14 -14 V54 a14 14 0 0 1 14 -14 Z" fill="#FFFFFF" stroke="#1A1A1A" stroke-width="2.2"/>
  <path d="M188 40 V92 H240" stroke="#E7E0D8" stroke-width="2.2"/>
  <g stroke="#E7E0D8" stroke-width="7">
    <path d="M98 128 H212"/>
    <path d="M98 154 H212"/>
    <path d="M98 180 H176"/>
  </g>
  <path d="M100 224 c 12 -18 20 10 32 -2 c 10 -9 16 8 28 -4 c 8 -8 14 4 22 -2" stroke="#1A1A1A" stroke-width="2.2"/>
  <path d="M98 240 H212" stroke="#E7E0D8" stroke-width="2"/>
  <circle cx="228" cy="240" r="38" fill="#FFFFFF" stroke="#E8622C" stroke-width="2.4"/>
  <circle cx="228" cy="240" r="27" stroke="#E8622C" stroke-width="1.6" stroke-opacity="0.5"/>
  <path d="M214 240 l10 10 l18 -20" stroke="#E8622C" stroke-width="3.2"/>
</svg>
